<?xml version="1.0" encoding="utf-8"?>
<!-- Generator: Adobe Illustrator 23.0.0, SVG Export Plug-In . SVG Version: 6.00 Build 0)  -->
<svg version="1.1" id="Слой_1" xmlns="http://www.w3.org/2000/svg" xmlns:xlink="http://www.w3.org/1999/xlink" x="0px" y="0px"
	 viewBox="0 0 115.3 132.3" style="enable-background:new 0 0 115.3 132.3;" xml:space="preserve">
<style type="text/css">
	.st0{stroke:#000000;stroke-width:0.5905;stroke-miterlimit:10;}
	.st1{fill:none;stroke:#000000;stroke-width:10.6281;stroke-miterlimit:10;}
	.st2{fill:#FFFFFF;stroke:#000000;stroke-width:0.5905;stroke-miterlimit:10;}
</style>
<polygon class="st0" points="28,58.6 28,49.4 57.2,32.6 57.2,15.5 101.6,40.7 101.6,91.6 57.5,116.1 57.5,58.6 "/>
<image style="display:none;overflow:visible;opacity:7.000000e-02;" width="900" height="508" xlink:href="sb logo - Google Search.png"  transform="matrix(1 0 0 1 -393.8212 -154.8315)">
</image>
<polygon class="st1" points="5.3,36.1 5.3,96.1 57.6,126.1 109.9,96.1 109.9,36.1 57.6,6.1 "/>
<polygon class="st0" points="42.4,90.8 42.4,72.6 12.2,72.6 "/>
<polygon class="st2" points="72.6,41.3 72.6,58.4 86.6,58.4 86.6,49.1 "/>
<polygon class="st2" points="72.4,90.3 72.4,73.5 86.7,73.5 86.7,82.6 "/>
</svg>
