<?xml version="1.0" standalone="no"?>
<!DOCTYPE svg PUBLIC "-//W3C//DTD SVG 20010904//EN"
 "http://www.w3.org/TR/2001/REC-SVG-20010904/DTD/svg10.dtd">
<svg version="1.0" xmlns="http://www.w3.org/2000/svg"
 width="700.000000pt" height="700.000000pt" viewBox="0 0 700.000000 700.000000"
 preserveAspectRatio="xMidYMid meet">
<metadata>
Created by potrace 1.11, written by Peter Selinger 2001-2013
</metadata>
<g transform="translate(0.000000,700.000000) scale(0.100000,-0.100000)"
fill="#000000" stroke="none">
<path d="M3135 6821 c-359 -178 -1051 -521 -1830 -906 -225 -112 -611 -302
-857 -424 l-448 -220 0 -1770 0 -1770 253 -125 c138 -68 522 -258 852 -421
330 -163 749 -370 930 -460 182 -89 585 -289 898 -443 l567 -281 548 271 c301
149 718 355 927 458 209 103 623 308 920 455 297 147 667 330 823 406 l282
139 0 1770 0 1770 -447 222 c-247 121 -632 312 -858 423 -225 111 -635 314
-910 450 -907 449 -1285 635 -1288 634 -1 0 -164 -80 -362 -178z m935 -774
c140 -69 577 -284 970 -479 393 -195 859 -425 1036 -512 l320 -158 0 -1397 -1
-1396 -235 -117 c-222 -111 -1057 -524 -1840 -910 -195 -97 -460 -228 -588
-291 l-233 -116 -272 136 c-150 74 -402 200 -562 278 -159 79 -598 295 -975
482 -377 187 -775 384 -885 438 l-201 98 0 1397 0 1398 406 200 c223 111 635
314 915 453 281 139 512 253 515 254 3 1 183 89 400 197 217 108 455 225 528
262 l133 65 157 -78 c86 -43 272 -135 412 -204z"/>
<path d="M3565 5551 l0 -419 -825 -412 c-454 -227 -827 -414 -830 -417 -3 -2
-5 -112 -5 -244 l0 -239 700 1 c385 0 759 -1 830 -1 l130 0 0 -1405 c0 -773 3
-1405 6 -1405 3 0 98 44 210 99 347 168 480 231 604 291 66 32 192 93 280 135
88 43 223 108 300 145 77 37 212 103 300 145 88 43 210 101 270 130 310 148
513 246 535 259 l25 15 0 1253 0 1253 -131 65 c-72 36 -257 127 -410 202 -153
75 -445 219 -649 318 -203 100 -455 224 -560 275 -104 51 -320 156 -478 234
-159 77 -292 141 -295 141 -4 0 -7 -188 -7 -419z m966 -915 c30 -13 104 -47
164 -76 209 -99 339 -161 500 -235 l50 -23 0 -214 0 -213 -385 0 -385 0 0 393
c0 215 0 392 1 392 1 0 26 -11 55 -24z m710 -1513 c1 -5 2 -98 3 -208 2 -164
0 -203 -12 -217 -8 -10 -19 -18 -23 -18 -4 0 -120 -51 -256 -114 -136 -62
-270 -123 -298 -136 -27 -12 -79 -36 -113 -52 -35 -16 -69 -30 -75 -31 -8 -1
-11 111 -11 391 l-1 392 393 0 c215 0 393 -3 393 -7z"/>
<path d="M661 3177 c2 -2 90 -48 194 -102 105 -54 217 -112 250 -130 33 -18
137 -72 230 -120 94 -48 193 -100 220 -115 28 -15 149 -78 270 -140 121 -62
225 -116 230 -120 6 -4 109 -58 230 -120 121 -62 239 -123 263 -136 23 -13 44
-24 45 -24 2 0 3 227 3 505 l0 505 -969 0 c-534 0 -968 -2 -966 -3z"/>
</g>
</svg>
