<svg id="Слой_1" data-name="Слой 1" xmlns="http://www.w3.org/2000/svg" viewBox="0 0 183.86 138.12"><defs><style>.cls-1{fill:#fff;stroke-width:8.65px;}.cls-1,.cls-2,.cls-3{stroke:#000;stroke-miterlimit:10;}.cls-2{stroke-width:0.48px;}.cls-3{stroke-width:0.45px;}.cls-4{fill:#1d1d1b;}</style></defs><title>Безымянный-3</title><polygon class="cls-1" points="43.78 27.64 43.78 73.24 89.38 96.04 134.98 73.24 134.98 27.64 89.38 4.84 43.78 27.64"/><polygon class="cls-2" points="76.11 69.23 76.11 55.35 49.82 55.35 76.11 69.23"/><path class="cls-3" d="M104.18,16.94V29L80.65,40.84v6.44h23.77V87.74L140,70.48V34.69Zm12.41,18.19L128,40.59v6.59H116.59Zm11.44,29-11.56,5.48V57.78H128Z" transform="translate(-13.68 -1.9)"/><path class="cls-4" d="M22.66,111.11a3.21,3.21,0,0,1,3.24,2.64.67.67,0,0,1,.08.33.48.48,0,0,1-.18.35.53.53,0,0,1-.36.16c-.21,0-.34-.13-.38-.39a2.9,2.9,0,0,0-.78-1.57,2.19,2.19,0,0,0-1.62-.64,1.75,1.75,0,0,0-1.49.68,2.72,2.72,0,0,0-.5,1.63,7.54,7.54,0,0,0,.25,1.91,18,18,0,0,0,.63,2c.25.66.53,1.31.82,2s.56,1.32.81,2a11.73,11.73,0,0,1,.88,4.15,6,6,0,0,1-1,3.37,4.55,4.55,0,0,1-4.1,2,6.43,6.43,0,0,1-3.71-1.07,3.48,3.48,0,0,1-1.56-3.06,5.19,5.19,0,0,1,1.19-3.43A8.74,8.74,0,0,1,15.92,123a.66.66,0,0,1,.39-.17c.27,0,.41.11.41.33a.57.57,0,0,1-.09.32,7.17,7.17,0,0,0-1.39,1.6,4.78,4.78,0,0,0-.56,2.14,3.24,3.24,0,0,0,.36,1.64,3.19,3.19,0,0,0,1,1,5.17,5.17,0,0,0,3,.82,3.67,3.67,0,0,0,3-1.47,4.82,4.82,0,0,0,1-3.09,17,17,0,0,0-1.7-5.77,17.23,17.23,0,0,1-1.71-5.5,4.72,4.72,0,0,1,.74-2.66A2.54,2.54,0,0,1,22.66,111.11Z" transform="translate(-13.68 -1.9)"/><path class="cls-4" d="M28.06,122.09v-.21a3.93,3.93,0,0,0-.15-.69.75.75,0,0,1,.17-.47.54.54,0,0,1,.43-.21c.17,0,.3.11.41.32a1.47,1.47,0,0,1,.17.69c0,.26-.32,1.77-1,4.54s-1,4.22-1,4.37.07.22.2.22.22-.09.38-.26a.66.66,0,0,1,.42-.26c.23,0,.34.14.34.42s-.21.53-.63.75a2.44,2.44,0,0,1-.93.31c-.47,0-.71-.38-.71-1.14a1.78,1.78,0,0,1,.09-.53,6.55,6.55,0,0,0,.21-.81c.07-.35.17-.82.31-1.41s.27-1.21.41-1.85l.51-2.31Q28.06,122.2,28.06,122.09Zm1.45-4.79a.53.53,0,0,1,.6.61c0,.58-.2.91-.61,1a2.34,2.34,0,0,1-.38,0,.59.59,0,0,1-.41-.2.72.72,0,0,1-.21-.53.82.82,0,0,1,.32-.61A1,1,0,0,1,29.51,117.3Z" transform="translate(-13.68 -1.9)"/><path class="cls-4" d="M30.91,131.41a8,8,0,0,0,.29-1.21,9.26,9.26,0,0,1,.34-1.31A72.62,72.62,0,0,0,33,121.51c0-.12,0-.23.05-.34a1.11,1.11,0,0,1,.3-.5,1.2,1.2,0,0,1,.32-.08c.19,0,.32.12.38.36v.16a16.34,16.34,0,0,1-.46,3.27l-.52,2.2c.15-.31.31-.68.49-1.09a14.16,14.16,0,0,1,2.1-3.68,2.81,2.81,0,0,1,2.11-1.09,1.26,1.26,0,0,1,1,.51,1.92,1.92,0,0,1,.4,1.19c0,.07,0,.12,0,.18a.76.76,0,0,0,0,.15,6.09,6.09,0,0,1,2.37-1.88,1.87,1.87,0,0,1,.76-.17,1,1,0,0,1,.73.37,1.37,1.37,0,0,1,.35,1,7,7,0,0,1-.13,1.32c-.09.47-.2.95-.34,1.43s-.28,1-.45,1.45-.38,1.16-.65,2a12.16,12.16,0,0,0-.47,2,6,6,0,0,1-.12.82,1.15,1.15,0,0,1-.18.31.46.46,0,0,1-.39.18q-.48,0-.48-1a4.63,4.63,0,0,1,.24-1.4l.38-1.26c.1-.34.24-.75.41-1.23s.38-1.1.63-1.88a11.06,11.06,0,0,0,.5-2.51c0-.28,0-.45-.1-.5a.63.63,0,0,0-.39-.08,1.82,1.82,0,0,0-.83.36,5.7,5.7,0,0,0-1.14,1,10.08,10.08,0,0,0-1.92,3.7c-.13.44-.24.82-.35,1.13s-.26.75-.44,1.29-.32,1-.43,1.45a2.93,2.93,0,0,1-.28.78.42.42,0,0,1-.38.16.48.48,0,0,1-.52-.52,14.25,14.25,0,0,1,.74-3c.32-.89.59-1.59.79-2.11s.41-1.1.6-1.75a6.29,6.29,0,0,0,.29-1.69c0-.47-.15-.71-.44-.71q-1.21,0-3.18,4a26.62,26.62,0,0,0-1.28,2.8l-.35,1c-.45,1.42-.88,2.13-1.28,2.13a.69.69,0,0,1-.36-.09A.25.25,0,0,1,30.91,131.41Z" transform="translate(-13.68 -1.9)"/><path class="cls-4" d="M47.86,123.64c1-1.92,2.08-2.87,3.24-2.87a1.57,1.57,0,0,1,1.32.53,2.72,2.72,0,0,1,.39,1.6,14.81,14.81,0,0,1-.55,3.95,9.78,9.78,0,0,1-1.65,3.43,3.25,3.25,0,0,1-2.6,1.41,1.62,1.62,0,0,1-.93-.25,1.66,1.66,0,0,1-.56-.83c-.35,1.59-.68,3.16-1,4.73s-.63,3-1,4.26A.64.64,0,0,1,44,140q-.33,0-.36-.42.68-2.65,1.08-4.8c.28-1.43.49-2.52.63-3.29s.36-1.86.63-3.3.71-3.67,1.31-6.72V121a.54.54,0,0,1,.19-.39.58.58,0,0,1,.44-.19.4.4,0,0,1,.37.19.73.73,0,0,1,.12.38,1.08,1.08,0,0,1,0,.32,2.29,2.29,0,0,1-.07.28,2.76,2.76,0,0,1-.08.27,1.29,1.29,0,0,0-.05.24Zm-.9,5.44c0,1.08.4,1.61,1.19,1.61a2.55,2.55,0,0,0,2-1.37,10.85,10.85,0,0,0,1.56-4.7,12.17,12.17,0,0,0,.11-1.56c0-.9-.22-1.35-.67-1.35a2.33,2.33,0,0,0-1.54,1,10.58,10.58,0,0,0-2,3.23A9.14,9.14,0,0,0,47,129.08Z" transform="translate(-13.68 -1.9)"/><path class="cls-4" d="M57.31,130.13a.41.41,0,0,1,.46.46c0,.32-.21.56-.61.73a3.61,3.61,0,0,1-1.4.25,1.37,1.37,0,0,1-1.52-1.44,7.73,7.73,0,0,1,.07-1.12c0-.33.12-.8.23-1.41s.23-1.27.38-2,.3-1.56.48-2.42.36-1.74.54-2.64.37-1.78.56-2.67l.54-2.51c.17-.8.33-1.53.47-2.2s.26-1.23.36-1.68a.43.43,0,0,1,.47-.33c.3,0,.44.16.44.48v.27c-.26,1.27-.53,2.52-.79,3.73s-.7,3.31-1.32,6.29-1,5-1.21,6.06a17,17,0,0,0-.28,1.9.87.87,0,0,0,.2.56.55.55,0,0,0,.45.25,1.21,1.21,0,0,0,.48-.09,4.08,4.08,0,0,0,.42-.18l.37-.19A.84.84,0,0,1,57.31,130.13Z" transform="translate(-13.68 -1.9)"/><path class="cls-4" d="M64.09,129.69c.24,0,.36.12.36.38s-.36.62-1.07,1a4.14,4.14,0,0,1-1.8.55,1.91,1.91,0,0,1-1.07-.23,1.8,1.8,0,0,1-.59-.66,4.14,4.14,0,0,1-.44-2,12,12,0,0,1,.62-3.86,8.83,8.83,0,0,1,1.64-3,2.91,2.91,0,0,1,2.21-1.2,1.16,1.16,0,0,1,1,.53,2.16,2.16,0,0,1,.36,1.25,3.65,3.65,0,0,1-.7,2.27,5.52,5.52,0,0,1-1.73,1.53,18.45,18.45,0,0,1-2.35,1.13l-.05,1.51c0,1.17.36,1.76,1.07,1.76a2.63,2.63,0,0,0,1.21-.33l.9-.49A1.15,1.15,0,0,1,64.09,129.69Zm.26-7.2c0-.55-.23-.82-.69-.82s-.89.37-1.44,1.11a9.24,9.24,0,0,0-1.38,2.92,3.16,3.16,0,0,0-.15.66c.27-.15.55-.29.84-.43s.57-.28.84-.43a4.38,4.38,0,0,0,1.46-1.22A2.92,2.92,0,0,0,64.35,122.49Z" transform="translate(-13.68 -1.9)"/><path class="cls-4" d="M74.37,132.25c0-.22.07-.5.14-.84l-.59-.12c-.85-.17-1.29-.4-1.32-.68,0,0,0-.09,0-.17a.43.43,0,0,1,.12-.26.32.32,0,0,1,.23-.13l.22,0a4.12,4.12,0,0,1,.48.21,2.87,2.87,0,0,0,1.09.16l.54-2.29c.21-1.08.45-2.17.71-3.26s.53-2.19.79-3.31l-.64,0c-.21,0-.32-.12-.32-.35s.38-.51,1.14-.51c.31-1.3.58-2.72.82-4.25a27.63,27.63,0,0,1,.93-4.09,2.43,2.43,0,0,0-.7.44.59.59,0,0,1-.54.38.42.42,0,0,1-.23-.09.37.37,0,0,1-.13-.33,1,1,0,0,1,.61-.86,4.39,4.39,0,0,1,1.41-.53.38.38,0,0,1,.32-.21.4.4,0,0,1,.32.17,4.26,4.26,0,0,1,3.13,1.34,5.06,5.06,0,0,1-.11,6.63A4.64,4.64,0,0,1,79.9,121,4.59,4.59,0,0,1,83,122.55a4.43,4.43,0,0,1,1.35,3,5,5,0,0,1-2.3,4.51,11.17,11.17,0,0,1-6.2,1.5l-.45,0a2.79,2.79,0,0,0-.07.51.82.82,0,0,1-.23.44.52.52,0,0,1-.34.17C74.54,132.67,74.4,132.53,74.37,132.25Zm1.24-1.66a5.65,5.65,0,0,0,.82,0,8.55,8.55,0,0,0,5.16-1.34,4.26,4.26,0,0,0,1.81-3.59A3.64,3.64,0,0,0,82,122.9a4.79,4.79,0,0,0-3.19-1.23c-.3,0-.67,0-1.11,0-.66,2.87-1.08,4.71-1.25,5.49s-.27,1.27-.32,1.45-.1.39-.15.6l-.18.7C75.71,130.12,75.66,130.36,75.61,130.59ZM83,116.09a3.83,3.83,0,0,0-1-2.85,3.56,3.56,0,0,0-2.51-1,38.69,38.69,0,0,0-1,4.58c-.32,1.93-.55,3.21-.69,3.86a6.08,6.08,0,0,0,3.66-1.42A4,4,0,0,0,83,116.09Z" transform="translate(-13.68 -1.9)"/><path class="cls-4" d="M89.11,130.13a.41.41,0,0,1,.47.46c0,.32-.21.56-.62.73a3.55,3.55,0,0,1-1.39.25,1.45,1.45,0,0,1-1.15-.42,1.47,1.47,0,0,1-.37-1,9.59,9.59,0,0,1,.06-1.12q.08-.49.24-1.41c.1-.6.23-1.27.37-2s.31-1.56.49-2.42.36-1.74.54-2.64.37-1.78.56-2.67l.54-2.51c.17-.8.33-1.53.47-2.2s.26-1.23.36-1.68a.43.43,0,0,1,.47-.33c.29,0,.44.16.44.48v.27c-.27,1.27-.53,2.52-.79,3.73s-.7,3.31-1.33,6.29-1,5-1.21,6.06a18.55,18.55,0,0,0-.27,1.9.87.87,0,0,0,.2.56.55.55,0,0,0,.45.25,1.21,1.21,0,0,0,.48-.09l.42-.18.37-.19Z" transform="translate(-13.68 -1.9)"/><path class="cls-4" d="M92.13,131.41c-.8,0-1.2-.5-1.2-1.51a8.46,8.46,0,0,1,1.12-3.69,16.16,16.16,0,0,1,2.64-3.79c1-1.06,1.84-1.59,2.48-1.59a1,1,0,0,1,1.09.84,4.46,4.46,0,0,1,.06.54.41.41,0,0,1,.23-.06c.32,0,.48.15.48.46v.08s-.09.33-.26.93a28.16,28.16,0,0,0-.58,3,23.25,23.25,0,0,0-.33,3.56l.22.14a3.06,3.06,0,0,1,.3.23.47.47,0,0,1,.19.38.59.59,0,0,1-.14.38.44.44,0,0,1-.37.17,1.15,1.15,0,0,1-.91-.51,1.75,1.75,0,0,1-.41-1.11,24.41,24.41,0,0,1,.7-4.41,17.06,17.06,0,0,1-2.26,3.52A14.63,14.63,0,0,1,93.27,131,1.87,1.87,0,0,1,92.13,131.41ZM92,129.94c0,.26.11.38.32.38a.52.52,0,0,0,.38-.15,16.85,16.85,0,0,0,3.81-5.06,19.36,19.36,0,0,0,1-2.12,3,3,0,0,0,.05-.47.71.71,0,0,0-.1-.37.31.31,0,0,0-.29-.17,1.28,1.28,0,0,0-.54.19A7.6,7.6,0,0,0,94.67,124a14.43,14.43,0,0,0-1.93,3A7.06,7.06,0,0,0,92,129.94Z" transform="translate(-13.68 -1.9)"/><path class="cls-4" d="M107.18,123.1c0-.67-.18-1-.55-1s-1.44,1.41-2.82,4.23c-.63,1.28-1.07,2.25-1.32,2.9s-.44,1.11-.56,1.38a2.24,2.24,0,0,1-.36.6.53.53,0,0,1-.4.21c-.15,0-.24,0-.26-.11a1.1,1.1,0,0,1,0-.39c0-.19.28-1.8.83-4.84s.87-4.63,1-4.79a.93.93,0,0,1,.23-.3.69.69,0,0,1,.37-.07.5.5,0,0,1,.42.2.66.66,0,0,1,.15.37,1.65,1.65,0,0,1,0,.31c0,.19-.12.42-.22.69a26.27,26.27,0,0,0-.94,4l-.22,1.24c.16-.33.34-.73.54-1.19s.49-1.12.88-2a14.07,14.07,0,0,1,1.3-2.31c.62-.89,1.19-1.33,1.72-1.33.94,0,1.41.75,1.41,2.27a11.89,11.89,0,0,1-.24,2.12c-.17.85-.34,1.77-.54,2.78a16.6,16.6,0,0,0-.32,2.49l-.12.56a.6.6,0,0,1-.07.32c0,.07-.18.1-.4.1a.77.77,0,0,1-.48-.12.46.46,0,0,1-.1-.44l1-6.13A12.09,12.09,0,0,0,107.18,123.1Z" transform="translate(-13.68 -1.9)"/><path class="cls-4" d="M117.66,129.35q.54,0,.54.69a1.2,1.2,0,0,1-.34.8,1.91,1.91,0,0,1-1.41.77,3.22,3.22,0,0,1-2.14-.77A6.13,6.13,0,0,1,112.8,129a6.44,6.44,0,0,1-.72-1.83l0,0q-.07.53-.45,2.07c-.25,1-.4,1.65-.44,1.85-.07.36-.23.54-.49.54a.64.64,0,0,1-.45-.12c-.09-.07-.14-.13-.14-.18v-.08a39.67,39.67,0,0,1,1-4.59c.63-2.66,1-4.33,1.19-5q1.17-5.06,1.59-7.55c.29-1.67.46-2.58.53-2.73s.16-.22.25-.22c.46,0,.68.23.68.7a11,11,0,0,1-.24,1.4l-.45,2.18c-.14.68-.37,1.76-.69,3.23s-.54,2.45-.64,2.93a2.41,2.41,0,0,1,1.7-.91,1.22,1.22,0,0,1,1.16.58,2.68,2.68,0,0,1,.31,1.24,3.07,3.07,0,0,1-.87,2.17,12.13,12.13,0,0,1-2.64,2,5.49,5.49,0,0,0,1.33,2.76,2.89,2.89,0,0,0,2.14,1.18.81.81,0,0,0,.76-.48,5,5,0,0,0,.21-.5Q117.44,129.35,117.66,129.35Zm-3-7.68a1.72,1.72,0,0,0-1.38.71,4.84,4.84,0,0,0-.85,2.17c0,.2-.1.52-.19,1l-.15.74.38-.25c.19-.11.49-.32.93-.61a6.72,6.72,0,0,0,1.27-1.16,2.44,2.44,0,0,0,.62-1.63C115.33,122,115.12,121.67,114.7,121.67Z" transform="translate(-13.68 -1.9)"/><path class="cls-4" d="M134.61,112.32c-1.6,0-2.7-.07-3.31-.07s-1.26,0-2,.07c-.3,0-.44-.15-.44-.35,0-.39.35-.61,1.06-.66l.6,0,4.3.08c.19-.58.46-.88.8-.88.19,0,.31.12.35.36l.05.42,0,.1,1-.05.85,0,1.18-.09c.53,0,1.11-.05,1.74-.05h.76l.28,0c.24.06.36.17.36.35,0,.42-.34.63-1,.63-.89,0-1.84,0-2.85.1s-1.93.11-2.75.13c-.24,1.15-.52,2.45-.85,3.9s-.83,3.82-1.48,7.14-1.16,6.07-1.52,8.25a.73.73,0,0,1-.23.43.55.55,0,0,1-.34.17c-.24,0-.37-.15-.39-.44a140.68,140.68,0,0,1,2.76-14.32q.31-1.32.48-2a8.23,8.23,0,0,0,.21-.94c0-.22.07-.45.11-.7s.07-.51.11-.77S134.56,112.57,134.61,112.32Z" transform="translate(-13.68 -1.9)"/><path class="cls-4" d="M144.73,129.69c.24,0,.36.12.36.38s-.36.62-1.08,1a4.11,4.11,0,0,1-1.79.55,2,2,0,0,1-1.08-.23,1.78,1.78,0,0,1-.58-.66,4,4,0,0,1-.44-2,12,12,0,0,1,.61-3.86,9,9,0,0,1,1.64-3,2.93,2.93,0,0,1,2.22-1.2,1.17,1.17,0,0,1,1,.53,2.16,2.16,0,0,1,.36,1.25,3.65,3.65,0,0,1-.7,2.27,5.64,5.64,0,0,1-1.73,1.53,18,18,0,0,1-2.36,1.13l0,1.51c0,1.17.36,1.76,1.07,1.76a2.59,2.59,0,0,0,1.2-.33l.91-.49A1.1,1.1,0,0,1,144.73,129.69Zm.26-7.2c0-.55-.23-.82-.69-.82s-.89.37-1.45,1.11a9.23,9.23,0,0,0-1.37,2.92,3.16,3.16,0,0,0-.15.66c.27-.15.55-.29.84-.43s.56-.28.84-.43a4.48,4.48,0,0,0,1.46-1.22A3,3,0,0,0,145,122.49Z" transform="translate(-13.68 -1.9)"/><path class="cls-4" d="M147.07,131.41a8,8,0,0,0,.29-1.21,10.88,10.88,0,0,1,.33-1.31q.87-3.48,1.44-7.38c0-.12,0-.23.05-.34a.6.6,0,0,1,.62-.58c.19,0,.31.12.37.36v.16a15.65,15.65,0,0,1-.46,3.27l-.52,2.2c.15-.31.31-.68.49-1.09a14.13,14.13,0,0,1,2.11-3.68,2.79,2.79,0,0,1,2.11-1.09,1.24,1.24,0,0,1,1,.51,1.86,1.86,0,0,1,.4,1.19,1,1,0,0,1,0,.18c0,.05,0,.1,0,.15a6.16,6.16,0,0,1,2.37-1.88,1.9,1.9,0,0,1,.76-.17,1,1,0,0,1,.74.37,1.37,1.37,0,0,1,.35,1,7.07,7.07,0,0,1-.14,1.32c-.09.47-.2.95-.33,1.43s-.28,1-.45,1.45-.39,1.16-.65,2a10.38,10.38,0,0,0-.47,2,6,6,0,0,1-.12.82,1,1,0,0,1-.19.31.45.45,0,0,1-.38.18q-.48,0-.48-1a4.92,4.92,0,0,1,.23-1.4q.24-.75.39-1.26c.1-.34.23-.75.4-1.23s.38-1.1.64-1.88a11.63,11.63,0,0,0,.5-2.51c0-.28,0-.45-.11-.5a.61.61,0,0,0-.38-.08,1.85,1.85,0,0,0-.84.36,5.67,5.67,0,0,0-1.13,1,10.1,10.1,0,0,0-1.93,3.7c-.12.44-.24.82-.35,1.13l-.43,1.29c-.18.55-.33,1-.43,1.45a2.93,2.93,0,0,1-.28.78.44.44,0,0,1-.38.16c-.33,0-.5-.17-.53-.52a14.88,14.88,0,0,1,.74-3c.33-.89.6-1.59.8-2.11s.4-1.1.6-1.75a6.23,6.23,0,0,0,.28-1.69c0-.47-.14-.71-.44-.71-.81,0-1.86,1.33-3.18,4a29,29,0,0,0-1.28,2.8l-.35,1c-.45,1.42-.88,2.13-1.28,2.13a.65.65,0,0,1-.35-.09A.25.25,0,0,1,147.07,131.41Z" transform="translate(-13.68 -1.9)"/><path class="cls-4" d="M164,123.64c1-1.92,2.08-2.87,3.24-2.87a1.55,1.55,0,0,1,1.31.53,2.64,2.64,0,0,1,.4,1.6,14.81,14.81,0,0,1-.55,3.95,9.62,9.62,0,0,1-1.66,3.43,3.22,3.22,0,0,1-2.6,1.41,1.59,1.59,0,0,1-.92-.25,1.74,1.74,0,0,1-.57-.83c-.34,1.59-.67,3.16-1,4.73s-.63,3-1,4.26a.65.65,0,0,1-.59.42q-.31,0-.36-.42c.45-1.77.82-3.37,1.09-4.8s.48-2.52.63-3.29.36-1.86.63-3.3.7-3.67,1.3-6.72V121a.58.58,0,0,1,.19-.39.61.61,0,0,1,.44-.19.4.4,0,0,1,.37.19.73.73,0,0,1,.12.38,1.58,1.58,0,0,1,0,.32c0,.1,0,.19-.07.28a2.76,2.76,0,0,0-.08.27,1.4,1.4,0,0,0-.06.24Zm-.9,5.44c0,1.08.39,1.61,1.18,1.61a2.54,2.54,0,0,0,2-1.37,10.85,10.85,0,0,0,1.56-4.7,10.65,10.65,0,0,0,.12-1.56c0-.9-.23-1.35-.67-1.35a2.37,2.37,0,0,0-1.55,1,10.36,10.36,0,0,0-1.95,3.23A9.14,9.14,0,0,0,163.12,129.08Z" transform="translate(-13.68 -1.9)"/><path class="cls-4" d="M173.46,130.13a.4.4,0,0,1,.46.46c0,.32-.2.56-.61.73a3.55,3.55,0,0,1-1.39.25,1.48,1.48,0,0,1-1.16-.42,1.51,1.51,0,0,1-.36-1,9.59,9.59,0,0,1,.06-1.12c0-.33.12-.8.23-1.41s.24-1.27.38-2l.48-2.42c.18-.87.36-1.74.55-2.64s.37-1.78.56-2.67.36-1.72.53-2.51.33-1.53.48-2.2.26-1.23.36-1.68a.43.43,0,0,1,.47-.33c.29,0,.44.16.44.48v.27c-.27,1.27-.53,2.52-.79,3.73s-.7,3.31-1.33,6.29-1,5-1.21,6.06a18.55,18.55,0,0,0-.27,1.9.86.86,0,0,0,.19.56.57.57,0,0,0,.46.25,1.28,1.28,0,0,0,.48-.09l.42-.18.37-.19A.83.83,0,0,1,173.46,130.13Z" transform="translate(-13.68 -1.9)"/><path class="cls-4" d="M176.48,131.41c-.8,0-1.2-.5-1.2-1.51a8.46,8.46,0,0,1,1.12-3.69,16.16,16.16,0,0,1,2.64-3.79c1-1.06,1.84-1.59,2.48-1.59a1,1,0,0,1,1.09.84,4.46,4.46,0,0,1,.06.54.41.41,0,0,1,.23-.06c.32,0,.48.15.48.46v.08s-.09.33-.26.93a25.75,25.75,0,0,0-.58,3,23.25,23.25,0,0,0-.33,3.56l.21.14a2.21,2.21,0,0,1,.31.23.5.5,0,0,1,.19.38.59.59,0,0,1-.14.38.46.46,0,0,1-.38.17,1.15,1.15,0,0,1-.9-.51,1.75,1.75,0,0,1-.41-1.11,23.52,23.52,0,0,1,.7-4.41,17.06,17.06,0,0,1-2.26,3.52,14.63,14.63,0,0,1-1.91,2.08A1.87,1.87,0,0,1,176.48,131.41Zm-.16-1.47c0,.26.11.38.32.38a.52.52,0,0,0,.38-.15,16.83,16.83,0,0,0,3.8-5.06,15.8,15.8,0,0,0,1-2.12,2.23,2.23,0,0,0,.06-.47.71.71,0,0,0-.1-.37.32.32,0,0,0-.29-.17,1.28,1.28,0,0,0-.54.19,7.6,7.6,0,0,0-2,1.84,14.39,14.39,0,0,0-1.92,3A7.06,7.06,0,0,0,176.32,129.94Z" transform="translate(-13.68 -1.9)"/><path class="cls-4" d="M187.16,121.75a9.54,9.54,0,0,0-1.51.1q-.42,0-.42-.36a.59.59,0,0,1,.16-.38.58.58,0,0,1,.41-.22l1.52,0,.08-.52c0-.2.09-.49.17-.88a4.46,4.46,0,0,1,.32-1c.14-.31.33-.47.55-.47s.34.12.34.38v.13c-.2.85-.36,1.64-.5,2.39h1.51a2.31,2.31,0,0,1,1,.12.38.38,0,0,1,.17.31c0,.24-.14.4-.44.47a4.27,4.27,0,0,1-.9.06c-.46,0-.95,0-1.49-.06-.13.69-.41,2-.86,3.84a20.78,20.78,0,0,0-.67,3.62,2.1,2.1,0,0,0,.18,1.07.55.55,0,0,0,.45.17.82.82,0,0,0,.55-.19,3.87,3.87,0,0,0,.41-.4c.12-.15.24-.28.36-.41a.54.54,0,0,1,.39-.18.37.37,0,0,1,.42.42,1.48,1.48,0,0,1-.42.71,4.92,4.92,0,0,1-.78.76,1.73,1.73,0,0,1-1,.27,1.38,1.38,0,0,1-.94-.24,1.88,1.88,0,0,1-.54-1.5,6.9,6.9,0,0,1,.13-1.26l.19-1.19c.13-.59.25-1.1.35-1.55s.19-.82.27-1.16.17-.77.29-1.31S187.07,122.24,187.16,121.75Z" transform="translate(-13.68 -1.9)"/><path class="cls-4" d="M196.32,129.69c.24,0,.36.12.36.38s-.36.62-1.08,1a4.14,4.14,0,0,1-1.79.55,2,2,0,0,1-1.08-.23,1.7,1.7,0,0,1-.58-.66,4,4,0,0,1-.45-2,12,12,0,0,1,.62-3.86,9,9,0,0,1,1.64-3,2.91,2.91,0,0,1,2.21-1.2,1.15,1.15,0,0,1,1,.53,2.1,2.1,0,0,1,.37,1.25,3.72,3.72,0,0,1-.7,2.27,5.64,5.64,0,0,1-1.73,1.53,18.62,18.62,0,0,1-2.36,1.13l0,1.51c0,1.17.35,1.76,1.07,1.76a2.59,2.59,0,0,0,1.2-.33l.91-.49A1.1,1.1,0,0,1,196.32,129.69Zm.26-7.2c0-.55-.23-.82-.69-.82s-.89.37-1.45,1.11a9.23,9.23,0,0,0-1.37,2.92,4.27,4.27,0,0,0-.16.66l.84-.43c.29-.13.57-.28.85-.43a4.59,4.59,0,0,0,1.46-1.22A3,3,0,0,0,196.58,122.49Z" transform="translate(-13.68 -1.9)"/></svg>